<?xml version="1.0" encoding="utf-8"?>
<!-- Generator: Adobe Illustrator 25.3.1, SVG Export Plug-In . SVG Version: 6.00 Build 0)  -->
<svg version="1.1" id="rc-logo" xmlns="http://www.w3.org/2000/svg" xmlns:xlink="http://www.w3.org/1999/xlink" x="0px" y="0px"
	 viewBox="0 0 64 64" style="enable-background:new 0 0 64 64;" xml:space="preserve">
<style type="text/css">
	.st0{fill:#FFFFFF;}
</style>
<rect id="color" x="3.41" y="18.01" class="st0" width="57.81" height="31.4"/>
<g id="box">
	<path d="M0,0v64h64V0H0z M16.82,40.73l-4.73-6.87H10v6.87H6.05V22.31h7.88c2.06,0,3.68,0.51,4.89,1.53
		c1.2,1.02,1.81,2.46,1.81,4.32c0,1.44-0.38,2.62-1.15,3.56c-0.77,0.93-1.84,1.55-3.21,1.87l5.04,7.14H16.82z M26.74,40.25
		c-0.47,0.46-1.04,0.69-1.73,0.69s-1.26-0.23-1.73-0.69c-0.47-0.46-0.7-1.03-0.7-1.71c0-0.68,0.23-1.24,0.7-1.69
		c0.47-0.45,1.04-0.67,1.73-0.67s1.26,0.22,1.73,0.67c0.47,0.45,0.7,1.01,0.7,1.69C27.44,39.22,27.21,39.79,26.74,40.25z
		 M41.14,35.9c0.87,1.14,2.05,1.71,3.55,1.71c1.97,0,3.32-0.95,4.05-2.85h3.95c-0.37,1.92-1.25,3.45-2.63,4.58
		c-1.38,1.13-3.17,1.69-5.37,1.69c-2.57,0-4.7-0.88-6.38-2.66c-1.68-1.77-2.52-4.05-2.52-6.85c0-2.8,0.84-5.08,2.52-6.85
		c1.68-1.77,3.81-2.66,6.38-2.66c2.2,0,3.99,0.57,5.37,1.7c1.38,1.13,2.26,2.65,2.63,4.54h-3.95c-0.73-1.88-2.08-2.82-4.05-2.82
		c-1.5,0-2.68,0.56-3.55,1.69c-0.87,1.13-1.31,2.6-1.31,4.4C39.83,33.3,40.27,34.76,41.14,35.9z M58.25,40.25
		c-0.47,0.46-1.04,0.69-1.73,0.69c-0.69,0-1.26-0.23-1.73-0.69c-0.47-0.46-0.7-1.03-0.7-1.71c0-0.68,0.23-1.24,0.7-1.69
		c0.47-0.45,1.04-0.67,1.73-0.67c0.68,0,1.26,0.22,1.73,0.67c0.47,0.45,0.7,1.01,0.7,1.69C58.95,39.22,58.72,39.79,58.25,40.25z"/>
	<path d="M15.92,26.27c-0.52-0.46-1.27-0.69-2.24-0.69H10v5.13h3.67c0.98,0,1.72-0.23,2.24-0.69c0.52-0.46,0.78-1.08,0.78-1.86
		C16.7,27.36,16.44,26.73,15.92,26.27z"/>
</g>
</svg>
